<mxfile host="app.diagrams.net" agent="Mozilla/5.0 (Windows NT 10.0; Win64; x64) AppleWebKit/537.36 (KHTML, like Gecko) Chrome/136.0.0.0 Safari/537.36" version="27.0.3">
  <diagram name="‫صفحه - 1‬" id="ZE83JCWvptQ--PR7GEOe">
    <mxGraphModel dx="1141" dy="628" grid="1" gridSize="10" guides="1" tooltips="1" connect="1" arrows="1" fold="1" page="1" pageScale="1" pageWidth="827" pageHeight="1169" math="0" shadow="0">
      <root>
        <mxCell id="0" />
        <mxCell id="1" parent="0" />
        <mxCell id="XFQT50zC6AlC2kEd5-D_-111" value="مشتری&amp;nbsp;" style="html=1;whiteSpace=wrap;" vertex="1" parent="1">
          <mxGeometry x="160" y="100" width="110" height="50" as="geometry" />
        </mxCell>
        <mxCell id="XFQT50zC6AlC2kEd5-D_-112" value="مدیر&amp;nbsp;" style="html=1;whiteSpace=wrap;" vertex="1" parent="1">
          <mxGeometry x="410" y="90" width="110" height="50" as="geometry" />
        </mxCell>
        <mxCell id="XFQT50zC6AlC2kEd5-D_-113" value="انبار دار&amp;nbsp;" style="html=1;whiteSpace=wrap;" vertex="1" parent="1">
          <mxGeometry x="620" y="100" width="110" height="50" as="geometry" />
        </mxCell>
        <mxCell id="XFQT50zC6AlC2kEd5-D_-114" value="کاربر&amp;nbsp;" style="html=1;whiteSpace=wrap;" vertex="1" parent="1">
          <mxGeometry x="150" y="300" width="110" height="50" as="geometry" />
        </mxCell>
        <mxCell id="XFQT50zC6AlC2kEd5-D_-115" value="مدیر سیستم&amp;nbsp;&lt;span style=&quot;color: rgba(0, 0, 0, 0); font-family: monospace; font-size: 0px; text-align: start; text-wrap-mode: nowrap;&quot;&gt;%3CmxGraphModel%3E%3Croot%3E%3CmxCell%20id%3D%220%22%2F%3E%3CmxCell%20id%3D%221%22%20parent%3D%220%22%2F%3E%3CmxCell%20id%3D%222%22%20value%3D%22%D9%85%D8%B4%D8%AA%D8%B1%DB%8C%26amp%3Bnbsp%3B%22%20style%3D%22html%3D1%3BwhiteSpace%3Dwrap%3B%22%20vertex%3D%221%22%20parent%3D%221%22%3E%3CmxGeometry%20x%3D%22160%22%20y%3D%22100%22%20width%3D%22110%22%20height%3D%2250%22%20as%3D%22geometry%22%2F%3E%3C%2FmxCell%3E%3C%2Froot%3E%3C%2FmxGraphModel%3E&lt;/span&gt;" style="html=1;whiteSpace=wrap;" vertex="1" parent="1">
          <mxGeometry x="400" y="310" width="110" height="50" as="geometry" />
        </mxCell>
        <mxCell id="XFQT50zC6AlC2kEd5-D_-116" value="مسعول انبار دار&amp;nbsp;" style="html=1;whiteSpace=wrap;" vertex="1" parent="1">
          <mxGeometry x="610" y="310" width="110" height="50" as="geometry" />
        </mxCell>
        <mxCell id="XFQT50zC6AlC2kEd5-D_-117" style="edgeStyle=orthogonalEdgeStyle;rounded=0;orthogonalLoop=1;jettySize=auto;html=1;entryX=0.591;entryY=0.048;entryDx=0;entryDy=0;entryPerimeter=0;" edge="1" parent="1" source="XFQT50zC6AlC2kEd5-D_-111" target="XFQT50zC6AlC2kEd5-D_-114">
          <mxGeometry relative="1" as="geometry" />
        </mxCell>
        <mxCell id="XFQT50zC6AlC2kEd5-D_-118" style="edgeStyle=orthogonalEdgeStyle;rounded=0;orthogonalLoop=1;jettySize=auto;html=1;entryX=0.587;entryY=0.008;entryDx=0;entryDy=0;entryPerimeter=0;" edge="1" parent="1" source="XFQT50zC6AlC2kEd5-D_-112" target="XFQT50zC6AlC2kEd5-D_-115">
          <mxGeometry relative="1" as="geometry" />
        </mxCell>
        <mxCell id="XFQT50zC6AlC2kEd5-D_-119" style="edgeStyle=orthogonalEdgeStyle;rounded=0;orthogonalLoop=1;jettySize=auto;html=1;entryX=0.591;entryY=0.024;entryDx=0;entryDy=0;entryPerimeter=0;" edge="1" parent="1" source="XFQT50zC6AlC2kEd5-D_-113" target="XFQT50zC6AlC2kEd5-D_-116">
          <mxGeometry relative="1" as="geometry" />
        </mxCell>
      </root>
    </mxGraphModel>
  </diagram>
</mxfile>
